<svg id="Layer_1_copy" data-name="Layer 1 copy" xmlns="http://www.w3.org/2000/svg" viewBox="0 0 1080 1620"><defs><style>.cls-1{fill:#fff4ec;}</style></defs><rect class="cls-1" width="1080" height="1620"/><path d="M706.15,394.79C686,392.89,668.22,406.72,651,415c-18.54,8.93-37.9,16-56.65,24.44-17.91,8.08-35.11,17.62-50.06,30.49a182,182,0,0,0-35,41.11,228.13,228.13,0,0,0-23.16,49.53c-5.86,17.61-9.06,35.63-12.15,53.88-3,17.78-6.65,36.46-17.56,51.29-6.24,8.49-14.79,14.58-23.67,20-9.16,5.63-18.49,11-27.89,16.21a814.17,814.17,0,0,1-119.61,54.19q-7.63,2.74-15.33,5.33a1.51,1.51,0,0,0-.66,2.51c13.54,11.3,29.85,18.33,46.59,23.46A266.79,266.79,0,0,0,369.19,798,271.47,271.47,0,0,0,478,785.87c35.67-11.64,67.82-32.92,105-39.94,19.62-3.69,39.76-4,59.65-3.13a427.68,427.68,0,0,1,60.94,7.4c34.66,6.6,72.44,15,105.94-.89a75,75,0,0,0,10.9-6.34,1.52,1.52,0,0,0,0-2.59,502.16,502.16,0,0,0-86.82-36.69c-7-2.2-14.07-4.07-21.06-6.27-6.53-2-13.14-4.58-18.46-9C683.89,679.93,681.61,666.62,682,654c.4-13.34,3.4-26.42,4.23-39.73.88-14.2-.13-28.88-5.64-42.14-2.62-6.3-6.33-11.84-10.36-17.31s-8.42-11.14-10.84-17.65c-5.57-15,1.36-30.57,8.29-43.82C675.86,477.76,684,462.21,691,446a511.88,511.88,0,0,0,18.19-49.22c.57-1.85-2.32-2.64-2.9-.8a507.65,507.65,0,0,1-37.91,89.82c-6.89,12.76-14.78,26.82-14,41.82.79,14.53,11,24.5,18.38,36.07,8.08,12.58,10.78,27.46,10.75,42.22,0,14.11-3,27.87-4.14,41.88-1,12.09-.66,25.42,6.37,35.83,7.5,11.12,20.42,15.18,32.68,18.69A504.85,504.85,0,0,1,818.91,743v-2.59c-30.65,21.34-69.85,15.52-104.19,8.92-38.49-7.39-77.83-12.71-117.06-8.51a194.77,194.77,0,0,0-53.34,13.91c-17,7-33.41,15.35-50.46,22.2a268,268,0,0,1-107,19.11,265.09,265.09,0,0,1-54.67-7.14c-17.2-4.11-34.53-9.6-49.68-18.89a94.4,94.4,0,0,1-11.22-8.05l-.66,2.51a820.75,820.75,0,0,0,119.59-51.15q14.37-7.54,28.42-15.67c9.07-5.23,18.38-10.39,26.74-16.74,14.66-11.15,22.66-27,27.15-44.56,4.57-17.87,6.16-36.33,10.49-54.26a240.59,240.59,0,0,1,19.1-52.38,194.55,194.55,0,0,1,31.09-45,172.12,172.12,0,0,1,45.87-34.51c18.2-9.58,37.49-16.79,56.36-24.87,9.37-4,18.64-8.26,27.62-13.07s18-10.26,28-13a41.63,41.63,0,0,1,15.1-1.43c1.92.18,1.9-2.82,0-3Z"/><path d="M703.84,752.05c-5.65,11.83-1.29,25,6.32,34.91,8.86,11.47,22.23,18,33.76,26.36a72.64,72.64,0,0,1,25.19,31.6c5,12.26,7.11,25.54,7.82,38.71.81,15-.15,30-1.44,45-.14,1.6,2,1.88,2.8.76a88.88,88.88,0,0,0,12.18-26.46l-2.74.36c9.37,13.61,19,27.7,23.65,43.74,5,17,1.73,33.6-4.39,49.87s-13.09,32.41-18.82,49q-8.83,25.54-15.57,51.76-7.44,29-12.24,58.53l2.51-.66c-13-15.88-12.84-37.64-10.65-57,1.28-11.33,3.21-22.6,3.59-34a119.63,119.63,0,0,0-2.9-30.3,120.85,120.85,0,0,0-12.74-32.76c-.81-1.44-3.38-.46-2.74,1.15,10,25.15,3.21,52.05-3.15,77.2-3.23,12.78-6.52,25.59-8.17,38.7-1.83,14.62-.3,28.85,1.41,43.39,1.56,13.31,2.26,26.51-.43,39.72a125.39,125.39,0,0,1-10.86,30.62c-9.93,20-23.47,38-36.17,56.29-14.2,20.47-27.89,41.92-34.25,66.28h2.89c-9.26-61.09,18-121.71,5.55-182.74A113.79,113.79,0,0,0,637,1130.21a1.5,1.5,0,0,0-2.59,1.52c14.61,31.25,7.17,67.16-6.74,97.24-14.07,30.42-35.76,56.37-53.85,84.37-10.12,15.64-19.14,32-25.22,49.69l2.5-.66a197,197,0,0,1-44.52-74.61,194.19,194.19,0,0,1-8.89-42.79c-1.33-14.7-.56-29.47-1-44.21-.51-16.06-2.73-32.31-11.05-46.37-.71-1.21-2.92-.78-2.79.76a277.65,277.65,0,0,1-9.53,99h2.89c-5.82-14.64-18-24.72-28.85-35.61-11.2-11.29-19.1-24-22.33-39.71-6.31-30.62,2.14-62.23,2.71-93,.31-16.74-1.66-33.61-9-48.83a1.51,1.51,0,0,0-2.79.76c1.81,18.27-15.58,31.14-24.45,45.1a74.58,74.58,0,0,0-10,53.72l2.2-1.7c-18.16-9.22-24.65-29.88-24.73-49-.11-23.8,10.27-45.38,17.94-67.42,4.69-13.48,8.37-27.39,8.39-41.75,0-1.65-2.6-2.1-2.94-.4-3,15.14-17.62,23.7-28.69,32.79a87.29,87.29,0,0,0-27,38.38,85.62,85.62,0,0,0-4.84,27.32c0,1.93,3,1.93,3,0A83.91,83.91,0,0,1,339.88,1028a87,87,0,0,1,16.83-17.71c5.64-4.56,11.58-8.79,16.8-13.84,5.57-5.38,10.1-11.75,11.65-19.46l-3-.39c0,27.69-13.82,52.52-21.61,78.45-5.71,19-7.24,40.58.61,59.22,4.17,9.92,11.23,18.24,20.89,23.14a1.52,1.52,0,0,0,2.2-1.69,71.67,71.67,0,0,1,12.44-55.41c9.25-12.7,23.83-25.36,22.12-42.61l-2.8.76c13.74,28.36,7.89,61.27,5.16,91.36-1.35,14.88-2.27,30,0,44.81a76.6,76.6,0,0,0,17.47,39c11.63,13.56,27.77,24.15,34.59,41.28a1.51,1.51,0,0,0,2.89,0,280,280,0,0,0,9.64-99.77l-2.8.76c15.65,26.45,9.1,58.91,11.59,88.06A199.73,199.73,0,0,0,549,1364.49a1.52,1.52,0,0,0,2.51-.66c11.35-33,33-60.74,52.53-89.15,19.06-27.73,36.28-57.73,40.52-91.7,2.25-18,.18-36.25-7.54-52.77l-2.59,1.52c34.51,50.21,15.83,114.58,10.68,170.15-1.65,17.89-2,35.89.74,53.7.23,1.51,2.54,1.34,2.89,0,11.65-44.64,46.68-77.54,67.83-117.4,10.79-20.32,16.85-42,15.11-65.13-1.14-15.18-4.22-30.2-3.36-45.49.76-13.54,3.84-26.83,7.12-40,6.94-27.81,16.05-57.83,4.92-85.83l-2.74,1.16a117.48,117.48,0,0,1,15.18,62.72c-.91,21.41-6.94,42.6-3.71,64.08,1.53,10.16,5.17,19.83,11.69,27.83a1.51,1.51,0,0,0,2.51-.66A664.72,664.72,0,0,1,789.58,1051c5.86-17.34,12.91-34.15,19.51-51.21,6-15.65,10.06-31.87,6.44-48.6-3.94-18.3-14.77-34.25-25.21-49.43a1.52,1.52,0,0,0-2.74.36,86.54,86.54,0,0,1-11.88,25.75l2.79.75c2.2-25.49,3.83-52.33-3.86-77.11-3.6-11.57-9.44-22.46-17.92-31.2-10.08-10.4-23.34-16.65-34.57-25.61-11.67-9.3-23-25.82-15.71-41.11.83-1.73-1.76-3.25-2.59-1.51Z"/><path d="M324.7,1072.46c-8.11-1.55-13.89-8.6-16.07-16.27-2.8-9.85-.73-20.47,1.63-30.19,4.55-18.79,12.59-36.48,21.34-53.64s18.42-34.09,26.32-51.77c7.6-17,13.43-35,15.68-53.58,2.16-17.93.61-36.44-6.85-53-.92-2.06-1.94-4.08-3-6.05-.93-1.69-3.52-.18-2.59,1.51,9,16.23,11.51,34.9,9.92,53.2-1.63,18.79-7.32,37.18-14.83,54.41-7.78,17.87-17.48,34.83-26.37,52.16s-17.08,34.95-21.93,53.77c-2.51,9.73-4.66,20.12-3,30.18,1.33,8.16,5.88,16.21,13.35,20.19a20,20,0,0,0,5.66,2c1.89.36,2.7-2.53.8-2.9Z"/><path d="M363.08,805.14a13.16,13.16,0,0,0-4.36-11.28,1.54,1.54,0,0,0-2.12,0,1.51,1.51,0,0,0,0,2.12c.33.29.65.6.95.92s.31.35.46.54c0,0,.14.19.05.06l.23.32A11.75,11.75,0,0,1,359,799c.11.21.21.42.31.63l.08.18.1.26a10.86,10.86,0,0,1,.4,1.26l.15.69c0,.1,0,.2.05.31s0,.23,0,.06a11.41,11.41,0,0,1,0,2.8,1.5,1.5,0,0,0,1.5,1.5,1.54,1.54,0,0,0,1.5-1.5Z"/><path d="M356.9,796.27l2.56,1.3a1.62,1.62,0,0,0,1.16.15,1.5,1.5,0,0,0,1.05-1.85,1.52,1.52,0,0,0-.69-.9l-2.57-1.29a1.61,1.61,0,0,0-1.16-.15,1.57,1.57,0,0,0-.89.69,1.47,1.47,0,0,0-.15,1.16,1.44,1.44,0,0,0,.69.89Z"/><path d="M551.84,776.94c6.52,4.94,4.45,14.53,2.16,21-2.84,8-6.62,16.51-3,24.94l2.59-1.52a16.36,16.36,0,0,0-8.88-6c-3.31-.84-7.4-.69-8.82,3-1.34,3.49.68,6.86,3.21,9.15,3.24,2.94,6.81,5.58,10.25,8.28q6,4.74,12.18,9.34a1.46,1.46,0,0,0,1.52,0,68.13,68.13,0,0,1,11.16-7,83.85,83.85,0,0,1,12.37-4.68c3.62-1.13,7.36-2.82,9-6.48,1.51-3.34.73-7.4-2.78-9.08-4.37-2.1-8.75.25-12.42,2.65l2.26,1.3c1.65-14-14.65-26.58-5.69-40.24a16.64,16.64,0,0,1,9.13-6.84c1.85-.54,1.06-3.44-.8-2.89a20,20,0,0,0-13.88,15.8c-1.22,7.86,3,14.91,5.87,21.88,1.64,3.92,2.88,8,2.37,12.29a1.51,1.51,0,0,0,2.26,1.29c2.63-1.72,6-4,9.24-2.71,3.07,1.23,2.53,4.86.66,6.93-2.29,2.53-6.07,3.18-9.18,4.17a68.78,68.78,0,0,0-21.09,11h1.52q-5.65-4.23-11.2-8.58c-3.57-2.79-7.27-5.52-10.63-8.57-1.28-1.16-2.6-2.57-2.74-4.38a2.63,2.63,0,0,1,2.77-3.1,12.65,12.65,0,0,1,9.75,5,1.5,1.5,0,0,0,2.59-1.52c-3.72-8.63,2.07-17.92,4.41-26.09,2.08-7.24,1.86-16-4.65-20.95-1.54-1.16-3,1.44-1.52,2.59Z"/><path d="M592.45,769.62a19.6,19.6,0,0,0,23.42,6.67c8.07-3.37,14.42-11.53,23.76-11.33a17.4,17.4,0,0,1,13,6.28c1.24,1.48,3.35-.65,2.12-2.13a20.29,20.29,0,0,0-23.9-5.22c-7.88,3.54-14.22,11.54-23.55,10.93A16.56,16.56,0,0,1,595,768.1c-1.11-1.55-3.72-.06-2.59,1.52Z"/><path d="M610.46,783c5.27.35,9.39-3.11,13.44-6a17.24,17.24,0,0,1,6.67-3.19c2.91-.52,5.92,0,8.79.52V771.5a13.76,13.76,0,0,0-6.05,4.58,15.5,15.5,0,0,0-1.76,3.19c-.42,1-.88,2.35-1.95,2.82a11.05,11.05,0,0,1-3.77.36,35.15,35.15,0,0,1-3.84-.06,11.42,11.42,0,0,1-7-2.66c-1.41-1.31-3.54.81-2.12,2.12,4.24,3.92,10.59,4,16,3.42,3.08-.33,4.34-2.35,5.48-5a10.82,10.82,0,0,1,5.81-5.91c1.21-.48,1.63-2.61,0-2.89a33.68,33.68,0,0,0-8.61-.76,16.77,16.77,0,0,0-7.42,2.57c-4.25,2.63-8.26,7.07-13.67,6.71-1.93-.12-1.92,2.88,0,3Z"/><path d="M460.81,790.85a239.18,239.18,0,0,1,19.62,28.28q4.38,7.39,8.22,15.09c1.22,2.44,2.74,5,3.44,7.61.76,2.85-.28,5.91-.9,8.7-4.49,20.1-9.42,43.21,1.67,62.12,3.24,5.54,7.51,10.4,10.88,15.86A89.16,89.16,0,0,1,512.05,946l2.75-1.15a79.77,79.77,0,0,1-8.46-54.4,77,77,0,0,1,4.7-15.12l-2.8-.76A24.63,24.63,0,0,0,513.55,887c.87,1.09,2.51.12,2.56-1.06A62.9,62.9,0,0,1,523,859.81l-2.74-.36a76,76,0,0,0,6,15.2c.76,1.44,2.65.59,2.8-.76,1.14-10.64,11.19-19.38,21.73-19.93a20.93,20.93,0,0,1,3.71.13c1.67.22,3.28.77,5,.91a9.51,9.51,0,0,0,4.57-.91c1.78-.75,3.54-1.5,5.38-2.09,6.28-2,13.66-2.83,19.77.21,5.65,2.81,10,8.55,9.41,15.07-.17,1.79,2.4,1.88,3,.4l4.88-13.16-2.51.66a45,45,0,0,1,8.38,12.65c.5,1.12,2,.82,2.59,0l4.63-6.6-2.79-.76c.32,5.28,3.65,9.28,6.75,13.28a27.63,27.63,0,0,1,4.11,6.53,16.79,16.79,0,0,1,.52,9.37c-.64,3.43-1.77,6.75-2.54,10.15a69.46,69.46,0,0,0-1.46,9.3,71.19,71.19,0,0,0,.93,19.22,70.09,70.09,0,0,0,7.24,20.53c.85,1.59,3,.43,2.74-1.15-1.26-7.23,1.83-14.12,5.29-20.28,3.7-6.58,8-12.84,10.59-20,5.66-16,2.59-33.6-3.67-48.88a215.34,215.34,0,0,0-13.33-26l-1.29,2.25a24.14,24.14,0,0,0,18-5.42c5.22-4.3,7.6-10.69,10.49-16.59a60.82,60.82,0,0,1,5.63-9,33.09,33.09,0,0,0,5.14-9.42c2.16-6.76,1.61-14,1-21q-1.23-13.68-2.72-27.34c-.21-1.89-3.21-1.92-3,0q1.27,11.58,2.34,23.18c.64,6.93,1.65,14.16.33,21.06a25.19,25.19,0,0,1-3.67,9.14c-1.89,2.92-4.15,5.57-5.9,8.58-3.2,5.51-5,12-9.26,16.82a21.19,21.19,0,0,1-18.39,7c-1.17-.13-1.81,1.37-1.3,2.26,8.5,14.7,17,30.19,19.07,47.32a56.26,56.26,0,0,1-2,24.23c-2.38,7.26-6.82,13.55-10.54,20.15-4,7-7.12,14.58-5.69,22.76l2.74-1.16a68,68,0,0,1-7.86-37A63.17,63.17,0,0,1,628.3,901c.71-3.25,1.76-6.41,2.45-9.67a22.89,22.89,0,0,0,.31-9.71,19.83,19.83,0,0,0-3.24-6.93c-3-4.37-7.81-8.59-8.16-14.23a1.52,1.52,0,0,0-2.8-.75l-4.63,6.59h2.59A47.43,47.43,0,0,0,606,853.06a1.52,1.52,0,0,0-2.51.66l-4.88,13.16,2.95.4c.6-6.4-3-12.3-8.08-16-5.86-4.25-13.46-4.78-20.37-3.4-3.82.76-7.22,2.33-10.85,3.66-2.05.75-3.83.21-5.89-.19a22.84,22.84,0,0,0-4.44-.46,26.52,26.52,0,0,0-16.38,6A25.21,25.21,0,0,0,526,873.89l2.79-.76a72,72,0,0,1-5.66-14.48,1.52,1.52,0,0,0-2.74-.36,66.42,66.42,0,0,0-7.27,27.63l2.56-1.06a21,21,0,0,1-4.43-10.3c-.17-1.25-2.12-2.31-2.79-.75a83,83,0,0,0-2.85,57.3,80.46,80.46,0,0,0,6.61,15.24c.81,1.45,3.31.48,2.74-1.15a94,94,0,0,0-7.13-15.69c-2.92-5.11-6.53-9.69-9.88-14.5a47,47,0,0,1-7-14.61,58.72,58.72,0,0,1-1.84-15.5c.05-10.93,2.3-21.71,4.66-32.33a45.27,45.27,0,0,0,1.54-8.38c.09-3-1.24-5.59-2.51-8.23q-3.72-7.76-8-15.22a244.09,244.09,0,0,0-21.91-32c-1.21-1.51-3.32.63-2.12,2.12Z"/><path d="M561.62,862.56c1.3,4.16-3.89,7.19-7.07,8.47-4.73,1.91-9.67,3.23-14.51,4.83-9,3-17.83,7.24-22.66,15.82a18.75,18.75,0,0,0-2.09,14.25,1.52,1.52,0,0,0,2.74.36,35.14,35.14,0,0,1,11-12.22l-2.2-1.69c-4.81,14.8-4,32.19,3.31,46.08,2.93,5.57,8.16,11.29,15,10.6,7.07-.71,12-7.09,13.22-13.71a35.42,35.42,0,0,0-.19-12.15c-.41-2.59-1.77-7.31,1.73-8.33,2.51-.74,7.73-.82,8.08,2.66.18,1.84-.39,3.76-.61,5.58a46.29,46.29,0,0,0-.33,6.66,41.44,41.44,0,0,0,1.8,11.81c1,3.09,2.68,6.17,5.54,7.9,6.4,3.87,14.66-1,19.17-5.69,5.22-5.42,8-12.64,9.13-20a77.53,77.53,0,0,0,.75-12.18,63.76,63.76,0,0,0-1.18-12.49,34.61,34.61,0,0,0-1.79-5.9L598,894.69,608,906a1.51,1.51,0,0,0,2.56-1.06,31.7,31.7,0,0,0-12.73-24.7c-6.81-5.09-15.11-7.56-22.52-11.58a29.73,29.73,0,0,1-10.54-8.76c-1.1-1.57-3.7-.08-2.59,1.51,10,14.29,31,13.7,40.65,28.35a28.63,28.63,0,0,1,4.73,15.18l2.56-1.06-10-11.29c-1-1.07-3.07.06-2.5,1.46,3,7.35,3.17,15.67,2.74,23.5-.39,7.36-2,14.81-6.26,21a24.24,24.24,0,0,1-6.92,6.73c-2.82,1.77-6.54,3.35-9.89,2.29-3-1-4.66-4.06-5.56-6.89a39.32,39.32,0,0,1-1.65-11.56,44.53,44.53,0,0,1,.37-6.21,26.4,26.4,0,0,0,.58-5.31c-.27-3.48-2.77-5.42-6.08-5.84-3-.38-7-.25-9,2.39s-1.31,5.94-.81,8.81c1.21,7,1.45,15.24-4.25,20.4a9.84,9.84,0,0,1-8.3,2.68,12.66,12.66,0,0,1-7.2-4.85,32.15,32.15,0,0,1-4.71-8.77,58.83,58.83,0,0,1-2.48-33.68c.41-1.86.92-3.69,1.51-5.49a1.51,1.51,0,0,0-2.2-1.7,38.28,38.28,0,0,0-12.07,13.29l2.74.36c-2.45-8.82,4.23-17.35,11.46-21.59a67.76,67.76,0,0,1,14.11-5.72c4.67-1.47,9.64-2.7,14-5,4-2.09,8.3-6.14,6.76-11.09-.57-1.84-3.46-1-2.89.8Z"/><path d="M531.33,913.51c3.18.74,5.55-1.65,7.14-4.12,2.06-3.24,4-6.63,5.84-10a6,6,0,0,0,.87-4.63c-.41-1.28-2-2.23-1.44-3.68s2.39-1.92,3.85-2c1.86-.13,3.75,0,5.61,0l12.4.2c3.83.06,7.69,0,11.51.22,1.2.08,2.82.28,3.64,1.29.53.66.83,2.07-.1,2.5a12.23,12.23,0,0,1-2,.32,3.83,3.83,0,0,0-1.79,1,3.42,3.42,0,0,0-.62,3.57,8.23,8.23,0,0,0,3,3.73c1.73,1.28,3.52,2.5,5.28,3.74l11.36,8.08c1.58,1.12,3.08-1.48,1.52-2.59l-10.15-7.21-4.87-3.46c-1.18-.83-2.78-1.73-3.32-3.16-.46-1.2,1.62-.9,2.38-1.12a3.82,3.82,0,0,0,2.64-2.76,5.4,5.4,0,0,0-3.54-6.25,13.43,13.43,0,0,0-4.63-.72c-2.12-.06-4.23-.07-6.35-.11l-11.9-.19-5.95-.1a32.19,32.19,0,0,0-5.38.13c-3,.45-6.12,2.74-5.72,6.12a4.9,4.9,0,0,0,1,2.34c.51.71.86,1.16.61,2.06a13.58,13.58,0,0,1-1.5,2.81l-1.76,3c-1.09,1.87-2.11,3.83-3.32,5.64-.75,1.11-2,2.8-3.56,2.44-1.88-.44-2.68,2.46-.79,2.89Z"/><path d="M507.26,791.42l-.11-.26.15,1.16c-.35.36-.29.53.21.51l.83.19c.56.12,1.13.22,1.69.31,1,.15,2,.27,3,.34a32.8,32.8,0,0,0,6.42-.17,33.71,33.71,0,0,0,12.23-3.9,34.2,34.2,0,0,0,15.1-17.22c.72-1.78-2.18-2.56-2.89-.79a31,31,0,0,1-16.56,16.8,31.4,31.4,0,0,1-13,2.35,36.19,36.19,0,0,1-6.38-.91,3,3,0,0,0-2.89.5,2.21,2.21,0,0,0-.33,2.6c.75,1.77,3.33.25,2.59-1.51Z"/><path d="M542.15,775a1.94,1.94,0,0,0,3.81.4,52.65,52.65,0,0,0,1.5-5.54c1-3.72,2.29-7.57,1.89-11.47a1.54,1.54,0,0,0-1.5-1.5,1.51,1.51,0,0,0-1.5,1.5,22.39,22.39,0,0,1-1.1,8.11l-1.11,4.17-.51,1.92-.25,1-.17.64q-.11.39,0,.06l.66-.38.07,0,.75.21.06,0,.44,1.06V775c-.16-1.91-3.16-1.93-3,0Z"/><path d="M514.35,791.32c-4.35-1.25-9.16-1-13.23-3.19a34.31,34.31,0,0,1-5.48-3.87,18.52,18.52,0,0,1-4.47-4.58c-1-1.65-3.6-.15-2.6,1.51a20,20,0,0,0,4.64,4.95,43.13,43.13,0,0,0,6,4.38c4.45,2.48,9.53,2.32,14.32,3.69a1.5,1.5,0,0,0,.79-2.89Z"/><path d="M354.44,902.7,298.91,919c-16.16,4.72-32.84,9.23-47.12,18.48-11.94,7.74-22.25,19.39-25.67,33.49-3.74,15.45,4.27,29.89,3.17,45.24-.66,9.36-6.55,15.09-13.15,21a77.62,77.62,0,0,0-14,16.63c-8.13,12.87-13.34,27.34-21.59,40.14-9.12,14.14-22.29,24.78-33.83,36.81A135.83,135.83,0,0,0,120,1171.45c-6.44,15-10.87,30.66-14.72,46.45-4.48,18.37-8.46,36.88-11.73,55.51-6.44,36.68-10.08,74-8.36,111.27,2.94,63.77,22.6,128.73,65.41,177.28q3.74,4.23,7.69,8.27c3,3,6.34,6,8.27,9.87,4.08,8.13.24,18.49,1.48,27.25,2,14.24,10.65,26.46,20.06,36.89,10.85,12,23.1,23,35.17,33.72s25,21.19,39.06,29.61a160.15,160.15,0,0,0,21.34,10.74,1.49,1.49,0,0,0,1.84-1c3.63-16.57,22.53-20.31,36.79-21.77s27.25-4,39.77-11c24.86-14,41.49-38.39,52.52-64.08,6.9-16.06,12-32.8,17-49.51a1.51,1.51,0,0,0-2.51-1.46c-23.89,20.19-49.83,41.8-81.44,47.81-29.05,5.52-59.4-5.75-78.54-28.17-21.86-25.62-22.33-60.94-19.56-92.77,2.87-33,10.55-65.58,32-91.6,21-25.49,50.67-42.69,81.78-52.9a1.51,1.51,0,0,0,.66-2.5,142.94,142.94,0,0,0-77.23-46.12v2.9c19.15-7.64,39.6-15.72,53.71-31.42,12.11-13.5,19.13-32.91,12.72-50.61l-2.2,1.69a110.44,110.44,0,0,0,87.66,5.65c1.8-.66,1-3.56-.8-2.9a107.44,107.44,0,0,1-85.35-5.34c-1.07-.54-2.68.38-2.2,1.7,6.34,17.5-1.16,36.67-13.64,49.49C322.94,1288.47,304,1296,286,1303.17c-1.24.5-1.59,2.55,0,2.9a140.18,140.18,0,0,1,75.91,45.34l.66-2.51c-28.74,9.43-56.16,24.64-77,46.8a130.6,130.6,0,0,0-25.6,39.11c-6.64,15.89-10.11,32.87-12.17,49.9-4,33-5.83,70.89,13.92,99.54,16.34,23.71,45.09,38.65,74,37.38,37.46-1.65,68.23-27,95.56-50.09l-2.51-1.46c-9.05,30-18.39,61.35-38.46,86.14-8.78,10.85-19.46,20.31-31.84,26.84a77.37,77.37,0,0,1-19.19,7.12c-8.14,1.83-16.52,2-24.76,3.25-13.41,2-28.62,8.37-31.83,23l1.85-1c-31.09-12.89-56-36.21-80.09-59.06-11.11-10.54-22.6-21.72-29.2-35.78a46.43,46.43,0,0,1-4.53-22.14c.41-8,1.8-15.58-3.13-22.51-4.18-5.88-10-10.68-14.8-16.09a221.6,221.6,0,0,1-14.92-18.93,249.75,249.75,0,0,1-22.95-40.25c-13.25-29.12-21.31-60.58-24.83-92.34-4.08-36.85-2.34-74.15,2.74-110.8,4.82-34.76,11.68-70,22.16-103.55,4.94-15.79,11.32-31.27,20.68-45s21.9-24.17,33.28-36c10.8-11.2,18.29-23.78,25.13-37.66,6.75-13.73,13.64-26.65,25.21-36.95,5.24-4.65,10.16-9.45,12.09-16.4,1.84-6.62.92-13.6-.28-20.25-1.46-8-3.66-16.14-3-24.37a43.74,43.74,0,0,1,8-20.93c9.8-14.16,25.51-22.21,41.38-27.74,16.8-5.85,34.13-10.33,51.19-15.32l26.63-7.79c1.85-.54,1.06-3.44-.8-2.9Z"/><path d="M720.82,1225.28c5.83-2.38,12.16-4.26,18.51-4.08,8.1.23,12.65,4.76,13.48,12.79.58,5.65,1.31,10.76,4.43,15.63a43.5,43.5,0,0,0,10.16,10.59c8.83,6.89,19.22,11.9,27.05,20,9.58,10,11.23,25.25,1.84,36.11-8.49,9.81-26.41,9.16-30.93,22.66a1.51,1.51,0,0,0,.69,1.69c29.08,17.44,58.71,35.33,81.84,60.53,21.48,23.42,37.28,54.33,35.78,86.77-.85,18.42-7.19,36-13.9,53-6.87,17.42-13.91,34.78-20.88,52.16-3.14,7.85-5.66,17.46-11.87,23.54-5.62,5.48-13.73,6.85-21.29,6.2-14.28-1.22-27.67-9-39.11-17.17-25.23-18-46-43.09-76-53.38a1.53,1.53,0,0,0-1.85,1c-10.23,35,4.71,72.82,30.1,97.46,28,27.2,67.23,40,105,46,10.22,1.62,20.84,2.53,30.87-.58,9-2.79,16.92-8.27,24.34-14A377.3,377.3,0,0,0,932.45,1643c26.43-28,48.79-59.59,67.58-93.11,19.37-34.55,35.86-71.46,47.69-109.29,12.88-41.22,14.23-85.33,9.64-128a408.33,408.33,0,0,0-31-118,396.91,396.91,0,0,0-28.24-53.79c-5.23-8.35-10.52-17.26-17.45-24.34-7.1-7.24-16.76-11.22-24.41-17.82-15.41-13.3-25.94-31.33-36.94-48.19-6.09-9.34-12.63-18.66-16.86-29-3.9-9.6-4.89-19.81-5.77-30-1.5-17.63-4.43-35-18.88-46.83-12-9.86-27.77-13.88-42.89-15.94C827,927.48,819,927,811,926.62c-1.93-.08-1.92,2.92,0,3,31.46,1.29,72,6.51,80.21,43.12,2.12,9.48,2.26,19.26,3.4,28.88a80.54,80.54,0,0,0,7.83,27c4.51,9,10.31,17.29,15.79,25.69,5.3,8.13,10.51,16.34,16.2,24.21a130.6,130.6,0,0,0,18.69,21.35c7.12,6.31,15.9,10.2,23,16.41,7.42,6.5,12.68,15.5,17.93,23.74q8.17,12.82,15.32,26.26A403.76,403.76,0,0,1,1049,1277.63c8,40.3,10.44,82.78,4.69,123.56-3,21.3-9.46,41.8-17,61.89q-10.1,26.94-22.51,52.93c-16.38,34.12-36,66.83-59.47,96.56a413.22,413.22,0,0,1-36.67,40.67q-10.29,10-21.33,19.14c-7.45,6.18-15.07,12.51-23.62,17.14-19.36,10.48-42.37,4.61-62.59-.36-18.79-4.62-37.21-11.24-53.93-21.07-31.41-18.48-56.44-50.4-58.12-87.91a79.32,79.32,0,0,1,3.14-26l-1.85,1c28.8,9.86,49.16,33.86,73.07,51.45,19.74,14.52,58.16,33.69,72.69,2.53,3.9-8.38,7-17.19,10.45-25.77l11.23-28c6.91-17.26,14.38-34.6,17.75-53,6.11-33.36-5.5-66.07-25.82-92.47-24-31.16-58.35-52-91.59-71.88l.69,1.7c2.33-7,9.8-9.57,16-12.22,5.94-2.56,11.41-5.37,15.42-10.64a29.12,29.12,0,0,0,0-35.3c-7-9.23-17.71-14.72-27-21.31-4.79-3.4-9.57-7.24-12.77-12.24a23.63,23.63,0,0,1-3.3-7.93c-.83-4-.46-8.26-1.82-12.18-5-14.34-24.22-9.88-34.69-5.61-1.76.72-1,3.62.8,2.89Z"/><path d="M293.06,1298.14c-25.93-3.06-52.1-1.05-77.86,2.54-6.27.87-12.55,1.77-18.79,2.86-4.47.78-9,1.87-13,4.14a15.73,15.73,0,0,0-8.06,10.78c-1,5.9,1,11.76,2.8,17.31q6.9,21.38,13.79,42.76a1.51,1.51,0,0,0,3-.4l.31-7.71c.08-1.93-2.92-1.92-3,0l-.31,7.71,2.94-.4L183,1341.15c-1-3-2-6.08-2.94-9.12a40.52,40.52,0,0,1-2-8.47c-.43-4.89,1.14-9.45,5.25-12.32,3.66-2.57,8.14-3.73,12.48-4.56,5.7-1.09,11.48-1.87,17.23-2.7,12.47-1.79,25-3.22,37.59-3.91a246,246,0,0,1,42.39,1.07c1.91.23,1.9-2.78,0-3Z"/><path d="M162.09,1111.89c3.74,2,5.66,5.76,6.78,9.7,1.35,4.79,1.73,9.84,2.35,14.76q2.29,18.24,4.57,36.49l2.6,20.7a1.51,1.51,0,0,0,3,.4l2.22-6.33c.64-1.82-2.26-2.61-2.9-.8l-2.22,6.33,2.95.4q-2.38-19-4.76-38l-2.41-19.23c-.63-5.07-1-10.27-2.37-15.22-1.3-4.78-3.72-9.42-8.25-11.83-1.7-.91-3.22,1.68-1.51,2.59Z"/><path d="M230,1042.72c7.75,13,15.66,26,24.58,38.3,7.95,10.94,17.57,20.48,25.68,31.28a92,92,0,0,1,5.94,8.83q1.35,2.28,2.51,4.67a21,21,0,0,1,2.18,5.38c.29,1.9,3.18,1.09,2.89-.8a19,19,0,0,0-1.78-4.61c-.68-1.49-1.42-3-2.2-4.38a85.13,85.13,0,0,0-5.25-8.29c-3.84-5.39-8.15-10.41-12.5-15.4s-8.86-10.15-12.92-15.54c-4.54-6-8.72-12.32-12.78-18.67q-7.06-11-13.76-22.29a1.5,1.5,0,0,0-2.59,1.52Z"/><path d="M392,1221a439.23,439.23,0,0,0-38.83-26.63q-5.71-3.48-11.52-6.78a1.5,1.5,0,0,0-1.51,2.6,436.35,436.35,0,0,1,39.63,25.43q5.42,3.9,10.71,8c1.53,1.17,3-1.43,1.52-2.6Z"/><path d="M753.08,1211.42c-.39-3.74-6.26-2.35-5.19,1.14a3.62,3.62,0,0,0,4.2,2.2c2-.41,3.11-2.15,4.2-3.68a72.25,72.25,0,0,1,18.17-17.74,73.31,73.31,0,0,1,12.79-7,1.56,1.56,0,0,0,1-1.84,1.51,1.51,0,0,0-1.85-1,76.59,76.59,0,0,0-21.15,13.19,74.16,74.16,0,0,0-8.68,9c-1.25,1.55-2.37,3.21-3.59,4.79a2.85,2.85,0,0,1-2,1.31c-.6.11,0-.73-.44.28-.2.09-.17.1.07,0,.19.29,0,.05-.62-.7.19,1.9,3.19,1.92,3,0Z"/><path d="M817.53,1305.79a340.76,340.76,0,0,0,65.29-4.49c10.6-1.73,21.27-3.61,32.06-3.53a56.33,56.33,0,0,1,15.41,1.8,7.46,7.46,0,0,1,4.9,3.67c1,2,1.13,4.42,1.45,6.63a76.85,76.85,0,0,0,11.43,30.57c1,1.62,3.63.12,2.59-1.51A75,75,0,0,1,939.83,1311c-.74-4.38-.74-9.41-4.62-12.36a14.89,14.89,0,0,0-6-2.45,67.2,67.2,0,0,0-7.87-1.14c-11-1-22,.55-32.83,2.28-11,1.76-22,3.48-33.09,4.43a328,328,0,0,1-37.88,1c-1.93-.06-1.93,2.94,0,3Z"/><path d="M897.46,1034.62A89.6,89.6,0,0,1,875,1093.46a101.26,101.26,0,0,1-15.93,14.11c-6.3,4.65-12.82,9.51-16.43,16.67-.87,1.72,1.72,3.24,2.59,1.51,3.25-6.45,9-10.92,14.72-15.12a110.71,110.71,0,0,0,16.39-14.18,93.43,93.43,0,0,0,20.81-37.6,89.77,89.77,0,0,0,3.33-24.23,1.5,1.5,0,0,0-3,0Z"/><path d="M954.05,1111.8c1.3,7.16,1.59,14.45,2,21.7l1.27,21.89,2.58,44.29,1.45,24.87c.11,1.92,3.11,1.94,3,0l-5.19-89.06c-.47-8.18-.76-16.41-2.23-24.49-.35-1.9-3.24-1.09-2.89.8Z"/><path d="M932.41,1623.42a162.15,162.15,0,0,0,20.07-56,168.7,168.7,0,0,0-.85-59.16,159.57,159.57,0,0,0-9.85-32.06c-.76-1.77-3.34-.25-2.59,1.51a159,159,0,0,1,12.42,56.8,165.49,165.49,0,0,1-8.26,57.58,156.57,156.57,0,0,1-13.53,29.84,1.5,1.5,0,0,0,2.59,1.51Z"/><path d="M412.62,1396.44c17.9-2.39,40-4.5,53.13,10.79,4.43,5.17,9.17,16.71.75,20.74-3.92,1.88-8.51.76-12.16-1.17-4.46-2.34-8.48-5.62-12.53-8.59q-14.62-10.76-28.73-22.2c-1.48-1.21-3.62.9-2.12,2.12q13.55,11,27.58,21.37c4.45,3.29,8.86,6.9,13.71,9.58,4.11,2.28,8.91,3.63,13.57,2.33a11.1,11.1,0,0,0,8.08-9.07,19.75,19.75,0,0,0-2.83-12.73c-4.49-7.83-12.56-13-21-15.65-12.11-3.74-25.08-2.17-37.41-.52a1.55,1.55,0,0,0-1.5,1.5,1.5,1.5,0,0,0,1.5,1.5Z"/><path d="M324.55,1414.79c1-2,.63-3.87.26-5.93s-.62-3.84-.79-5.77a41.91,41.91,0,0,1,.4-11.73,25.14,25.14,0,0,1,4.64-10.6,53.59,53.59,0,0,1,9.06-8.49c1.51-1.21-.63-3.32-2.12-2.12a55.58,55.58,0,0,0-9.06,8.48,27.48,27.48,0,0,0-5.15,10.75,41.29,41.29,0,0,0-.91,11.84c.11,2,.34,4,.63,6,.27,1.77,1.28,4.38.45,6.06s1.75,3.26,2.59,1.52Z"/><path d="M341.41,1371.52a38.55,38.55,0,0,1,11,.48l11.43,1.72c3.69.55,7.37,1.09,11.05,1.66a35.53,35.53,0,0,1,10,2.69c1.73.84,3.26-1.75,1.52-2.59a37.45,37.45,0,0,0-10.49-3c-3.92-.61-7.84-1.18-11.76-1.77s-7.92-1.21-11.89-1.78a41.22,41.22,0,0,0-11.63-.35c-1.91.27-1.1,3.16.8,2.9Z"/><path d="M388.44,1380c17.48,9.5,32.14,23.15,45.5,37.72,3.37,3.67,6.67,7.42,9.93,11.19,1.58,1.82,3.16,3.66,4.72,5.5l2.49,2.92a15.39,15.39,0,0,1,2.23,2.86c2,4-7.58,4.09-9.43,4.21a25.43,25.43,0,0,1-14.53-2.93,46.56,46.56,0,0,1-10.93-9.15c-3-3.23-7.06-8-5.4-12.78,1.31-3.76,5.79-5.39,9.46-5.07,4.86.42,9.2,3.55,12.89,6.5A73.87,73.87,0,0,1,446,1431.32a70.37,70.37,0,0,1,4.59,6.13c.62.92,1.25,1.86,1.8,2.83s.64,1.55-.21,2.21c-1.69,1.33-4.47,1.4-6.5,1.61a60.59,60.59,0,0,1-8.08.32,80.92,80.92,0,0,1-16.17-2.15c-10.77-2.47-21.09-6.56-31.27-10.8q-15.58-6.48-30.72-14c-2.45-1.2-4.88-2.43-7.31-3.67-1.24-.64-2.95.72-2.05,2.05,1.81,2.69,4.67,3.87,7.57,5l10.6,4.28,21.68,8.74c6,2.41,12.37,4.46,17.9,7.84,4.59,2.82,8.43,7.28,7.32,13a17.92,17.92,0,0,1-4.32,8.18c-1.86,2.13-4.74,5.32-7.82,5.36-1.62,0-3.17-.95-4.58-1.64l-4.75-2.32q-4.77-2.34-9.5-4.7a377.89,377.89,0,0,1-35.77-20,196,196,0,0,1-18.47-13.44,83.57,83.57,0,0,1-8.35-7.49c-2.29-2.47-4.17-6.2-1.85-9.28,1.16-1.55-1.44-3-2.59-1.52-1.94,2.58-1.8,6.11-.49,8.93,1.47,3.16,4.26,5.51,6.82,7.77a185.09,185.09,0,0,0,17.23,13.47,321.54,321.54,0,0,0,38,22.14c6.55,3.34,13.13,6.64,19.78,9.79a10.27,10.27,0,0,0,4.51,1.28,9.19,9.19,0,0,0,5-1.75,27.09,27.09,0,0,0,7.08-7.2c3.57-5.23,4.62-12,.77-17.43-3.42-4.8-9-7.4-14.31-9.58-8.49-3.48-17-6.86-25.54-10.3L363,1419.9c-2.05-.83-4.12-1.6-6.14-2.49a9.34,9.34,0,0,1-4.25-3l-2.05,2q16.49,8.43,33.51,15.73c11.14,4.77,22.44,9.48,34.22,12.46a89.86,89.86,0,0,0,17.63,2.74,63,63,0,0,0,9-.19,23.89,23.89,0,0,0,7.58-1.47c1.9-.86,3.48-2.52,3.21-4.74a8.22,8.22,0,0,0-1.45-3.25c-.75-1.19-1.53-2.37-2.35-3.52A75.89,75.89,0,0,0,441,1421.88c-6.76-6.14-17.69-14.62-26.94-8.24a10.12,10.12,0,0,0-3.61,12.36c1.92,4.92,6,9,9.87,12.5a34.31,34.31,0,0,0,13.16,8,27.8,27.8,0,0,0,8.47,1,49.69,49.69,0,0,0,8.43-.78c2-.39,4.12-1.19,5.33-2.9,1.37-1.93.84-4.29-.48-6.09-1.56-2.12-3.4-4.07-5.11-6.07s-3.51-4.11-5.29-6.15c-14.24-16.39-29.46-32.39-48-44-2.27-1.43-4.59-2.78-6.94-4.06-1.7-.92-3.22,1.67-1.52,2.59Z"/><path d="M317.67,1419c-5.3-5.52-14.05-5.22-20.06-1.07a24.64,24.64,0,0,0-7.63,8.54,13,13,0,0,0-.2,12.11c3.26,7.08,9.84,12.48,16.22,16.64,7.28,4.75,15.16,8.59,22.81,12.68l25.66,13.72c8.44,4.51,16.85,9.08,25.45,13.3a232.08,232.08,0,0,0,26.23,11c1.87.65,3.88,1.11,5.54-.25a5.28,5.28,0,0,0,1.8-4.51c-.16-2.07-1.37-3.79-2.59-5.39-1.5-2-3-3.95-4.54-5.92-5.36-7-10.53-14.19-16.25-20.89-4.81-5.63-10.39-10.9-17.39-13.65a26.73,26.73,0,0,0-5.2-1.44c-1.88-.32-2.7,2.57-.79,2.9,6.78,1.15,12.42,5.1,17.2,9.89,5.3,5.31,9.69,11.47,14.24,17.4l8.18,10.66a34.65,34.65,0,0,1,3.65,5c.53,1.06,1,3.35-.62,3.8-.86.24-2.1-.42-2.89-.7-1.07-.37-2.14-.76-3.2-1.15-2-.72-3.93-1.48-5.88-2.26-4.07-1.64-8.09-3.42-12.06-5.29-15.87-7.5-31.21-16.18-46.69-24.46-7.6-4.06-15.24-8.06-22.8-12.2-6.25-3.43-12.48-7.14-17.51-12.26a27.16,27.16,0,0,1-6.33-9.08,9.43,9.43,0,0,1-.47-5.72,16,16,0,0,1,2.68-5.13c3.92-5.4,10.62-9.22,17.32-6.86a10.19,10.19,0,0,1,4,2.61c1.34,1.39,3.46-.73,2.12-2.12Z"/><path d="M383,1492.21c-.93-1.53-2.3-3.69-.91-5.35,1.26-1.48,3.49-2.33,5.2-3.13,3.84-1.8,8.21-3.06,12.32-1.42a1.5,1.5,0,0,0,1.84-1,1.53,1.53,0,0,0-1-1.85c-5.19-2.07-10.82-.18-15.57,2.17-2.1,1-4.62,2.2-5.75,4.4-1.36,2.64-.09,5.41,1.32,7.74,1,1.64,3.6.14,2.59-1.52Z"/><path d="M285.05,1467.57a551.52,551.52,0,0,1,83.86,29.35c5.57,2.48,11.5,5,15.68,9.62,2.11,2.33,3.32,5.15,4.65,8a21.5,21.5,0,0,0,5.81,7.67c2.33,1.92,5.08,3.56,6.82,6.08a8.5,8.5,0,0,1,1.56,3.76,4.63,4.63,0,0,1-.19,2.09c-.14.4-.18.68-.63.77a7.68,7.68,0,0,1-2-.26L378,1531.54c-3.84-.52-7.73-.91-11.56-1.56-1.28-.22-2.48-.59-2.74-2a6.94,6.94,0,0,1,.71-3.87c2.2-4.91,7.58-7.51,12.42-9.08,1.22-.39,2.46-.74,3.7-1,1.89-.45,3.31-.63,4.93.59,2.95,2.23,5.64,4.93,8.42,7.38,2.62,2.3,5.65,4.48,7.89,7.16,1.64,2,2.54,5.69-.8,6.4-3.54.75-7.59-.31-11.08-.91s-7.22-1.33-10.81-2.11c-7.33-1.58-14.6-3.45-21.82-5.5-14.31-4.07-28.41-8.85-42.5-13.62-7.17-2.42-14.39-4.72-21.49-7.32-6.31-2.31-12.6-5.21-17.45-10-4.35-4.27-7.23-9.9-6.88-16.09.33-5.84,4-11,9.77-12.42a10.33,10.33,0,0,1,7.42.86c1.7.92,3.22-1.67,1.52-2.59-5.4-2.93-12.16-1.53-16.6,2.53-4.93,4.52-6.07,12-4.43,18.2,3.93,14.93,20.3,20.55,33.28,24.94,15.75,5.33,31.46,10.81,47.37,15.66,7.94,2.42,15.94,4.67,24,6.62a213.69,213.69,0,0,0,24,4.67c3.22.39,7.73.77,9.88-2.21,1.93-2.68,1-6.23-.82-8.65-2.3-3-5.57-5.31-8.38-7.78l-4.75-4.17a57.5,57.5,0,0,0-4.46-3.81c-3-2.11-6.53-1-9.75,0a35.35,35.35,0,0,0-8.41,3.61,18.25,18.25,0,0,0-6.11,5.87c-1.51,2.47-2.59,5.86-1.31,8.64,1.54,3.34,6,3.18,9.1,3.6l12.8,1.72,12.8,1.73c2,.27,4.07.56,6.11.82a3.42,3.42,0,0,0,3.95-2.37c1.26-3.1.1-6.58-1.81-9.15-2.05-2.76-5-4.52-7.56-6.73-2.81-2.44-4.22-5.51-5.78-8.8a24.64,24.64,0,0,0-5.84-8c-5.27-4.67-12.06-7.3-18.43-10.07q-11.17-4.86-22.56-9.24-23-8.8-46.64-15.56-5.71-1.63-11.46-3.13a1.5,1.5,0,0,0-.8,2.89Z"/><path d="M281.14,1506.79c-6.69,5.31-13.83,11.26-15.83,20a17.73,17.73,0,0,0,1.36,11.94,27.5,27.5,0,0,0,7.89,9.07c6.57,5.13,14.47,8.11,22.45,10.26,9,2.4,18.13,4.13,27.19,6.1,5.18,1.13,10.37,2.51,15.61,3.27,4.28.62,8.94.61,12.54-2.15.86-.66,1.08-2.54-.36-2.74a7.75,7.75,0,0,1-6.59-8.9c.26-1.31.76-2.56.94-3.89a10.84,10.84,0,0,0-.17-3.85,13.63,13.63,0,0,0-3.31-6.09c-3.45-3.78-8.6-5.41-13.45-6.5s-9.51-1.77-14.21-2.93c-5.17-1.28-10.26-3.18-14.23-6.85l-1.06,2.56a163.44,163.44,0,0,1,30.31,4.73c1.87.47,2.67-2.42.8-2.9a168.54,168.54,0,0,0-31.11-4.83,1.51,1.51,0,0,0-1.06,2.56c7.4,6.84,17.64,8.07,27.1,10,4.88,1,10.36,2,14.1,5.59a10.49,10.49,0,0,1,3.36,6.2c.31,2.63-1.17,5-1.16,7.61a10.83,10.83,0,0,0,8.94,10.4l-.36-2.75c-2.95,2.27-6.67,2.34-10.23,1.85-4.27-.6-8.49-1.73-12.7-2.64-8.63-1.87-17.29-3.62-25.87-5.67-7.49-1.79-15-4-21.65-8-6.26-3.8-12.88-9.79-12.56-17.76.38-9.52,8.6-16.09,15.44-21.52,1.51-1.2-.62-3.31-2.12-2.12Z"/><path d="M327.22,1562.15l.09-.12.66-.39a1.08,1.08,0,0,1,.76.09.17.17,0,0,1,.1.07l0,.08c0-.2,0-.26,0-.2,0-.32,0-.65,0-1a6.21,6.21,0,0,1,.4-1.93,8.63,8.63,0,0,1,2.28-3.34c2.26-2.13,5.37-3.13,8.29-4,1.84-.56,1.05-3.45-.8-2.9-4.19,1.25-8.44,2.88-11.13,6.51a10.14,10.14,0,0,0-2,5.75,4.15,4.15,0,0,0,.85,3.07,1.94,1.94,0,0,0,3.16-.2,1.5,1.5,0,0,0-2.59-1.52Z"/><path d="M448.89,1400.44a37.09,37.09,0,0,0,16.9,29.43c1.63,1.05,3.13-1.55,1.51-2.59a34,34,0,0,1-15.41-26.84c-.08-1.92-3.08-1.93-3,0Z"/><path d="M463.88,1405.65a79.5,79.5,0,0,1,23.67,27.07l1.29-2.25c-5.64.1-11-1.82-16.22-3.69l-16.6-5.93c-1.83-.65-2.61,2.24-.8,2.89q8.52,3,17.06,6.09c5.35,1.91,10.81,3.74,16.56,3.64a1.52,1.52,0,0,0,1.3-2.26,82.66,82.66,0,0,0-24.75-28.15c-1.57-1.12-3.07,1.48-1.51,2.59Z"/><path d="M653.21,1430.93,664,1411.28a30.22,30.22,0,0,1,4.57-6.87,8.9,8.9,0,0,1,3.08-2.14,17,17,0,0,1,4.88-.64,15.57,15.57,0,0,0,8.47-3.51,38.61,38.61,0,0,1,7.36-4.46,34.49,34.49,0,0,1,16.2-2.73,33.37,33.37,0,0,1,17.3,6.21,1.52,1.52,0,0,0,2-.54c7.61-12.12,21.37-18.18,35.13-20a81.06,81.06,0,0,1,21.56,0c7.67,1,16,3.25,19.52,10.83,2.11,4.47,2.56,9.68,3,14.54a150.86,150.86,0,0,1,.62,17,1.51,1.51,0,0,0,1.9,1.44,30.94,30.94,0,0,1,32,6.41c2.14,2,4.52,4.64,5.37,7.51,1,3.51-1.62,6.93-3.76,9.45-4.37,5.16-10,9-14.73,13.81-5.17,5.27-9.63,12.36-8.68,20.05.09.73.61,1.59,1.5,1.5l17.88-1.85,8.94-.92c2.17-.22,4.52-.47,6.62.28,4.64,1.65,3.12,7.21,1.37,10.47-2.33,4.36-5.8,8.29-9.17,11.86a83.76,83.76,0,0,1-13.17,11.35,1.52,1.52,0,0,0-.3,2.36c3,2.57,6.78,3.79,10.48,5.12,3.34,1.2,6.76,2.68,8.89,5.66,3.83,5.34,3,12.88.12,18.43-3.62,6.92-10.88,10.95-18,13.49-8.54,3.06-17.59,4.82-26.39,7l-8.17,2c-2.62.64-5.24,1.4-7.91,1.82-2.41.38-5,.41-7.22-.84a5.44,5.44,0,0,1-3-4.67l-.74,1.3,10-6.1a1.52,1.52,0,0,0-.35-2.74c-2.55-1-3.07-4-2.58-6.38a8.93,8.93,0,0,1,5.94-6.75c4-1.54,8.49-1.41,12.75-1.59a56.43,56.43,0,0,0,13.42-2.14,44.51,44.51,0,0,0,13.68-6.68,1.53,1.53,0,0,0,.31-2.36c-4.15-3.9-10-3.07-15.11-2-2.64.57-5.26,1.28-7.93,1.63-2.2.28-4.69.38-6.66-.79-2.65-1.57-3-5.18-5.77-6.63a6.89,6.89,0,0,0-5.82.16c-2,.82-3.93,1.88-5.92,2.77a118.16,118.16,0,0,1-55.62,10L733,1535a144.63,144.63,0,0,1,19.18-15.08,1.52,1.52,0,0,0,.31-2.36c-3.09-2.69-.88-7.32,1.9-9.26,3.75-2.6,8.7-3.41,13-4.82a186.35,186.35,0,0,0,28-11.9q7.6-4,14.81-8.7a1.52,1.52,0,0,0-.36-2.74c-5.92-2.17-12.23-.66-17.88,1.59-6,2.39-11.81,5.27-17.8,7.71a309.76,309.76,0,0,1-37.17,12.4q-10.61,2.79-21.4,4.83l1.7,2.21a128.23,128.23,0,0,1,26.42-38.33,125.94,125.94,0,0,1,18.07-15c5.95-4,12.33-7.46,18.16-11.71,6.29-4.6,11.92-10.27,14.24-17.9.36-1.19-1.12-2.47-2.2-1.7l-50,35.59L727.71,1470l1.82.24c-3.12-3.57-6.3-7.67-7.34-12.4a9.13,9.13,0,0,1,.69-6.23,13.63,13.63,0,0,1,5-4.85c4.77-3,9.77-5.73,14.65-8.58l15.23-8.87,17.37-10.13c1.7-1,.21-3.36-1.51-2.59l-40.32,18.12-20.16,9.06c-3,1.36-6.35,2.8-9.6,1.28-2.68-1.26-4.93-3.09-7.8-4a21.24,21.24,0,0,0-18.25,2.74l1.82,2.36,25.86-27.74a1.51,1.51,0,0,0-1.81-2.36c-3.77,1.94-7,4.65-10.46,7.08a49.34,49.34,0,0,1-10.53,5.68c-7.52,2.91-15.56,4.19-23.56,4.85-4.58.38-9.17.57-13.75.74-1.93.07-1.94,3.07,0,3,16.15-.6,33.52-1.39,47.52-10.44,4.16-2.69,7.86-6,12.29-8.32l-1.82-2.35L677.19,1444c-1.1,1.19.37,3.38,1.82,2.36a18.37,18.37,0,0,1,16.3-2.32c2.83,1,5.07,3,7.84,4.06,3.1,1.18,6.33.41,9.28-.8,6.72-2.75,13.28-5.93,19.9-8.91l20.16-9.06,22.65-10.18-1.51-2.59-33,19.25-8.15,4.75c-2.42,1.41-4.93,2.74-7.23,4.35-4.19,2.93-6.85,7.14-6.15,12.4.78,5.77,4.62,10.76,8.34,15a1.5,1.5,0,0,0,1.82.23l50-35.59,14.22-10.13-2.2-1.69c-2,6.59-6.87,11.64-12.28,15.67-5.76,4.3-12.12,7.7-18.08,11.7a131.33,131.33,0,0,0-33.11,32.09,128.7,128.7,0,0,0-13.12,22.75,1.52,1.52,0,0,0,1.69,2.21,308.65,308.65,0,0,0,37.29-9.5,346.69,346.69,0,0,0,35.47-13.9c6.15-2.77,13.18-5.6,19.89-3.14l-.35-2.74a183,183,0,0,1-29.18,15.47q-7.62,3.18-15.5,5.66c-4.53,1.43-9.76,2.45-13.18,6-3.06,3.21-4.07,9.06-.43,12.25l.31-2.36a149.33,149.33,0,0,0-19.79,15.55,1.52,1.52,0,0,0,1.06,2.56,121.05,121.05,0,0,0,51.4-8c2-.78,4-1.62,5.94-2.5s3.79-2,5.79-2.68a3.55,3.55,0,0,1,2.87-.07,4.65,4.65,0,0,1,1.59,1.89,13.88,13.88,0,0,0,2.61,3.6c4,3.54,9.71,2.42,14.43,1.38s11.89-3.6,16.08.35l.3-2.36a42.22,42.22,0,0,1-13.59,6.55,62.22,62.22,0,0,1-14.69,2c-4.74.17-9.79.47-13.91,3.07a11.64,11.64,0,0,0-5.17,8.6c-.44,3.78,1.15,7.47,4.86,8.84l-.36-2.74-7.74,4.7c-.92.55-2.67,1.18-3,2.29a5.63,5.63,0,0,0,.49,3.3c1.91,4.61,7.13,6.21,11.72,5.74a59.51,59.51,0,0,0,8.25-1.71l8.65-2.11c5.71-1.4,11.43-2.77,17.13-4.21,9.13-2.31,18.67-5.23,25.59-12,5.68-5.54,8.66-14.34,6.66-22.14a15.87,15.87,0,0,0-8.14-10.2c-4.55-2.38-10.07-3-14.07-6.41l-.3,2.36a88.67,88.67,0,0,0,13-11c3.78-3.91,7.67-8.28,10.29-13.08,2.13-3.89,3.62-9.27.26-12.94-3.74-4.1-10.43-2.52-15.22-2l-22.35,2.31,1.5,1.5c-.9-7.3,3.53-13.78,8.52-18.65s11-9.1,15.4-14.83c2.19-2.88,4.08-6.29,3.29-10-.68-3.21-3.08-6.13-5.3-8.45a33.68,33.68,0,0,0-15.54-9.07,32.84,32.84,0,0,0-20.32.91l1.9,1.45a147.86,147.86,0,0,0-.53-16c-.42-4.68-.84-9.54-2.32-14a19.57,19.57,0,0,0-7.3-10.19,29.67,29.67,0,0,0-11.51-4.42c-14.89-2.89-31.45-1.84-45.28,4.69a43.7,43.7,0,0,0-18.5,16.08l2-.53a37.31,37.31,0,0,0-33.56-4.66,34.85,34.85,0,0,0-7.71,3.76c-2.66,1.76-5.1,4.3-8.37,4.85-1.75.3-3.54.16-5.29.47a10.14,10.14,0,0,0-4.09,1.71A19.82,19.82,0,0,0,663,1407c-4.35,7.33-8.26,15-12.37,22.42-.93,1.69,1.66,3.21,2.59,1.52Z"/><path d="M671.61,1405.42a14.68,14.68,0,0,1,2.49,28c-1.77.71-1,3.61.79,2.89,7-2.81,12-10.16,11.41-17.83a18.19,18.19,0,0,0-13.89-16c-1.88-.42-2.68,2.47-.8,2.89Z"/><path d="M708.31,1415.71c5.16,1.81,10.25,5.54,11.94,11,1.49,4.73,0,10.57-4.48,13.11a1.5,1.5,0,0,0,1.51,2.59c5.52-3.14,7.65-10.24,6-16.18-1.88-6.64-7.87-11.17-14.13-13.37-1.83-.65-2.61,2.25-.8,2.89Z"/><path d="M734.43,1482.5a1.5,1.5,0,0,0,0-3,1.5,1.5,0,0,0,0,3Z"/><path d="M734.62,1483c6.23-1.61,13.92-2.48,18.82,2.66a7.84,7.84,0,0,1,2.22,7.1,6.36,6.36,0,0,1-4.51,5c-1.87.46-1.08,3.36.8,2.9a9.25,9.25,0,0,0,6.45-6.57,10.61,10.61,0,0,0-2-9.59c-5.42-6.94-14.92-6.41-22.59-4.43-1.87.48-1.07,3.38.8,2.89Z"/><path d="M747.64,1514c-.41,1.76,1.1,2.76,2.7,2.64a13.6,13.6,0,0,0,2.88-.92,21.62,21.62,0,0,1,2.88-.71,14.83,14.83,0,0,1,11.4,2.38,10.43,10.43,0,0,1,4.43,8.66,8.39,8.39,0,0,1-5.34,7.47c-1.82.61-1,3.51.8,2.89,5.62-1.89,8.68-8.27,7.14-13.92-1.67-6.2-7.65-10.1-13.8-10.66a20.9,20.9,0,0,0-5.85.37,21.61,21.61,0,0,0-3.06.83c-.46.16-.91.4-1.38.53a1.49,1.49,0,0,0-.3.09H750c-.47,0-.3.37.51,1.15.43-1.88-2.46-2.68-2.89-.8Z"/><path d="M795.21,1553.45a6.11,6.11,0,0,1,9.14,2.1,6.24,6.24,0,0,1,.19,4.92,8.17,8.17,0,0,1-3.46,3.71,27.36,27.36,0,0,1-6,2.5c-1.83.58-1,3.48.8,2.89,4.33-1.39,9.34-3.27,11.29-7.77a9,9,0,0,0-13.52-10.94,1.55,1.55,0,0,0-.54,2.05,1.52,1.52,0,0,0,2.06.54Z"/><path d="M456.89,1462.74c9.16-24.91,34.49-40.25,58.37-48.62a155.05,155.05,0,0,1,82.55-5.27,148.15,148.15,0,0,1,39.46,14.24c12.28,6.57,23.73,14.94,32.75,25.63,9.64,11.44,15.65,25.35,20.32,39.43,4.89,14.77,8.7,30.13,8.73,45.78,0,24.72-9.49,48.64-24.49,68.07a135.14,135.14,0,0,1-59.75,44,151.62,151.62,0,0,1-76.34,7.16c-25.71-4.14-50.45-14.67-70.65-31.2a209.73,209.73,0,0,1-17-15.77c-5.29-5.39-10.6-10.91-14.68-17.3a63.62,63.62,0,0,1-8.17-21.23,144.76,144.76,0,0,1-3-23.37c-1.39-29,6.21-58.87,25.77-80.93a86.88,86.88,0,0,1,14.27-13c1.55-1.12.06-3.72-1.51-2.59-23.6,17-37.15,44.4-40.69,72.85a145.13,145.13,0,0,0,2.23,47.8,66.81,66.81,0,0,0,8.22,21.54c4.07,6.49,9.37,12.11,14.69,17.57,10.35,10.65,21.51,20.47,34.23,28.21a152.1,152.1,0,0,0,36.28,15.94,157.93,157.93,0,0,0,79.11,2.54,139.92,139.92,0,0,0,67.34-36.82c17.91-17.74,31.26-40.68,35.59-65.68a112.31,112.31,0,0,0-1.23-42.37,204,204,0,0,0-6.54-23.4,159.51,159.51,0,0,0-8.72-21.24,96.61,96.61,0,0,0-28.29-33.44,139.51,139.51,0,0,0-37.8-19.93,158.37,158.37,0,0,0-84.59-5.39,147.8,147.8,0,0,0-39.74,14.43c-11.57,6.26-22.37,14.4-30.41,24.89a63.14,63.14,0,0,0-9.21,16.66c-.67,1.81,2.23,2.6,2.89.8Z"/><path d="M399.4,1261.42a150.69,150.69,0,0,0,62,33.45,1.5,1.5,0,0,0,.8-2.89,148.63,148.63,0,0,1-48.79-23.09,146,146,0,0,1-11.91-9.59c-1.43-1.29-3.56.83-2.12,2.12Z"/><path d="M391.86,1301.13A409.37,409.37,0,0,0,451.69,1331q8.79,3.53,17.75,6.65c1.82.63,2.61-2.26.79-2.9a405.15,405.15,0,0,1-60.64-26.9q-8.22-4.48-16.22-9.35c-1.65-1-3.16,1.59-1.51,2.59Z"/><path d="M383.34,1329.24a29.36,29.36,0,0,0,10.76,8.82,130.24,130.24,0,0,0,14.19,6,194,194,0,0,0,31.64,8.86q9.18,1.74,18.51,2.62c1.92.18,1.91-2.82,0-3-20.71-2-41.62-7.16-60.51-16-4.52-2.11-9.05-4.72-12-8.87-1.11-1.57-3.71-.07-2.59,1.51Z"/><path d="M743.69,1287.61l-.69-.14,0,.06s.13.55.14.38c0,.27.1.53.06.82a9.33,9.33,0,0,1-.92,2.47,27.56,27.56,0,0,1-3,5.06,35.86,35.86,0,0,1-8.57,8c-7.5,5.11-16.27,7.77-24.79,10.63-4.59,1.55-9.37,3-13,6.35-1.42,1.3.7,3.42,2.12,2.12,3.72-3.4,9-4.68,13.67-6.23,5-1.67,10-3.35,14.83-5.51,8.31-3.72,16.34-9.33,20.7-17.55,1-1.9,2.27-4.19,1.95-6.4-.3-2-1.92-3.78-4-2.66-1.7.92-.19,3.51,1.51,2.59Z"/><path d="M765.58,1338.22l-24.53,13.1-12.27,6.56c-.72.38-7.26,4.49-7.69,2.2-.35-1.89-3.24-1.09-2.89.8.69,3.71,5.43,3,7.91,1.82,4.55-2.18,8.94-4.77,13.39-7.15l27.59-14.74c1.7-.91.19-3.5-1.51-2.59Z"/><path d="M750,1260.74c6.43,7.45,13,14.81,19.28,22.37,5.15,6.18,10.88,14.11,9,22.64-.41,1.88,2.48,2.68,2.89.79,1.53-6.94-1.16-13.61-5-19.3-4.3-6.38-9.72-12-14.73-17.84l-9.3-10.78c-1.27-1.47-3.38.66-2.13,2.12Z"/><path d="M605.2,1317.87c-.05.21-.12-.07-.05.08v-1.51a119.05,119.05,0,0,1-25.72,31.9c-2.45,2.13-5.2,4.05-7.27,6.58a14.06,14.06,0,0,0-3.11,7.07c-.7,5,.75,10.08,1.82,15s2.21,10.48-1.56,14.34c-1.35,1.38.77,3.5,2.12,2.12,8.37-8.55-.9-21.1.58-31.06.47-3.2,2.27-5.62,4.64-7.74,2.83-2.52,5.79-4.86,8.54-7.47a122.4,122.4,0,0,0,15-17.24,119.32,119.32,0,0,0,7-11c.5-.89,1-1.67.42-2.66a2.74,2.74,0,0,0-1.75-1.22,3,3,0,0,0-3.58,2.06c-.47,1.87,2.42,2.67,2.89.8Z"/><path d="M499.21,1332.38c-1.89,8.37.87,16.75,5.73,23.6a52,52,0,0,0,8.75,9.51c3.1,2.63,6.54,4.83,9.51,7.61s5.87,6.4,5,10.7c-.39,1.88,2.5,2.69,2.89.8,1.71-8.21-5.77-14-11.57-18.36-6.77-5-13.07-11.35-16.16-19.37a23.54,23.54,0,0,1-1.24-13.7c.42-1.88-2.47-2.68-2.89-.79Z"/><path d="M693,1353a59,59,0,0,1-24.88,32.22,56.39,56.39,0,0,1-10.63,5.23c-1.8.66-1,3.56.79,2.89a62.21,62.21,0,0,0,32.75-28.1,60.81,60.81,0,0,0,4.87-11.45c.57-1.85-2.33-2.64-2.9-.79Z"/><path d="M608.73,1393.8a126.86,126.86,0,0,0,9.62-31.56c.31-1.89-2.58-2.7-2.89-.8a123.56,123.56,0,0,1-9.32,30.84c-.79,1.75,1.79,3.28,2.59,1.52Z"/><path d="M638.18,1400.65a57.27,57.27,0,0,0,14.49-14,1.5,1.5,0,1,0-2.59-1.52,52.88,52.88,0,0,1-13.41,12.9,1.54,1.54,0,0,0-.54,2,1.51,1.51,0,0,0,2,.54Z"/><path d="M514.22,1396.11a76.27,76.27,0,0,0-28.64-19c-1.81-.68-2.59,2.22-.8,2.9a72.88,72.88,0,0,1,27.32,18.26c1.33,1.41,3.45-.71,2.12-2.12Z"/><path d="M486.45,1020.42a3.1,3.1,0,0,1,.26,1.39c-.1.08-.42-.11-.42-.11l-.29-.13a1.52,1.52,0,0,1-.12.52,4.3,4.3,0,0,1-.25.53,22.59,22.59,0,0,1-1.88,2.78c-1.25,1.72-2.6,3.37-3.89,5.06a35.13,35.13,0,0,0-6,10.73c-2.5,7.87-1.45,16.5,1.1,24.21,5.4,16.32,18.29,29.23,22.35,46.08,2,8.43,1.75,17.7-3.27,25.07-1.09,1.6,1.51,3.1,2.59,1.51,4.92-7.22,5.65-16.24,4.14-24.65-1.64-9.18-6.14-17.44-10.84-25.38-4.87-8.22-10.13-16.39-12.77-25.67-2.54-8.93-2.58-18.57,2.57-26.59,1.39-2.16,3-4.16,4.58-6.18s3.54-4.12,4.4-6.52c.68-1.89-.25-4.78-2.74-4.17-1.94.49-2.87,2.88-1,4.11,1.61,1.08,3.11-1.52,1.52-2.59Z"/><path d="M666.72,989.64l8.33-.7-.39-3c-13.57,4.87-22.22,19.06-22.17,33.22a31.69,31.69,0,0,0,1.68,10.22,37.36,37.36,0,0,0,6.09,10.65c5,6.38,12.18,12.45,13.87,20.71,1.31,6.38-.69,15.53-8.27,16.58-1.91.27-1.1,3.16.79,2.9,6.87-1,10.29-7.72,10.79-14a21.55,21.55,0,0,0-1.58-10c-1.7-4-4.47-7.54-7.25-10.87-5.29-6.31-11-12.33-12.6-20.69a32.66,32.66,0,0,1,2.81-20.12c3.39-7.06,9.18-13,16.63-15.71,1.48-.53,1.4-3.1-.4-2.94l-8.33.7c-1.91.16-1.93,3.17,0,3Z"/><path d="M401.84,878.86c1.1,2.21.3,4.75-.5,6.93-.87,2.34-1.87,4.62-2.68,7a63.14,63.14,0,0,0-3.29,15.06c-.74,8.74,1.06,17.82,6.18,25.07A28.16,28.16,0,0,0,412,942c1.73.85,3.25-1.74,1.52-2.59-7.29-3.6-12.11-10.67-14.14-18.41-2.48-9.46-.64-19.48,2.6-28.52,1.7-4.75,5-10.1,2.49-15.14-.87-1.73-3.46-.21-2.59,1.52Z"/><path d="M726.43,936.83a128.14,128.14,0,0,1-3.21,71.37c-.61,1.84,2.28,2.62,2.9.8a131.49,131.49,0,0,0,3.2-73c-.45-1.87-3.34-1.08-2.89.8Z"/><path d="M584.77,1205.57c3,3.9,1.73,9.3,0,13.47-2.09,5.19-5.25,10-8.06,14.84q-9.12,15.63-19.11,30.75-5.64,8.55-11.55,16.92c-1.12,1.58,1.48,3.08,2.59,1.51q11-15.57,21.07-31.75,5-8.1,9.83-16.33c2.93-5,6.16-10.06,8.27-15.51s2.74-11.28-1-16c-1.18-1.52-3.29.61-2.12,2.12Z"/><path d="M541.36,1192.24a384.47,384.47,0,0,0-.69,44.52c.09,1.93,3.09,1.94,3,0a384.47,384.47,0,0,1,.69-44.52c.14-1.93-2.86-1.92-3,0Z"/><path d="M681.58,1107c11.47,10.17,11.32,27.47,8.45,41.31-1.93,9.35-4.87,18.49-6.28,27.94a63.47,63.47,0,0,0-.67,14,111.37,111.37,0,0,0,2.43,14.06,68.87,68.87,0,0,1,1.6,16.57,154.2,154.2,0,0,1-1.87,17c-.28,1.89,2.61,2.7,2.89.8,1.51-10.16,2.87-20.32,1.16-30.54-.8-4.8-2.07-9.51-2.8-14.32a55,55,0,0,1-.15-14.45c1.11-9.82,4.2-19.29,6.29-28.92,1.67-7.7,2.59-15.64,1.63-23.49-1-8.34-4.16-16.45-10.56-22.12-1.44-1.28-3.57.84-2.12,2.12Z"/><path d="M580.37,984.41c-2.69,12.82-10.53,24.06-12.42,37.08a32.93,32.93,0,0,0,2.29,17.79c2.27,5.37,5.54,10.2,8.52,15.17,3.24,5.42,6.25,11.2,6.49,17.64.08,1.93,3.08,1.94,3,0-.44-11.72-8.62-20.79-13.74-30.75a31.64,31.64,0,0,1-3.87-17.11c.48-6.28,2.79-12.3,5.15-18.08,2.81-6.86,6-13.65,7.48-20.94.39-1.89-2.5-2.69-2.9-.8Z"/><path d="M673.92,673.34a92.08,92.08,0,0,0-49.15,6.56c-1.76.76-.24,3.34,1.52,2.59a88.28,88.28,0,0,1,46.83-6.26,1.57,1.57,0,0,0,1.85-1.05,1.51,1.51,0,0,0-1.05-1.84Z"/><path d="M663.27,597.75l-36-2.31c-1.93-.13-1.92,2.87,0,3l36,2.31c1.93.12,1.92-2.88,0-3Z"/><path d="M649.68,526.58l-31,3.24c-1.9.2-1.92,3.2,0,3l31-3.24c1.91-.2,1.93-3.2,0-3Z"/><path d="M676.41,441.16c2,5.25-3,9.51-7,11.93-2.24,1.36-4.57,2.56-6.69,4.12a38.28,38.28,0,0,0-5.06,4.46c-6.07,6.39-10.09,14.33-15.54,21.2a34.88,34.88,0,0,1-10.87,9.54c-1.7.91-.19,3.5,1.52,2.59,8.32-4.4,13.5-12.5,18.59-20.1A84.16,84.16,0,0,1,659.58,464a34,34,0,0,1,5.24-4.64c2.31-1.62,4.85-2.86,7.22-4.4,4.74-3.06,9.52-8.59,7.26-14.64-.67-1.79-3.57-1-2.89.8Z"/><path d="M502.19,551.31a94,94,0,0,1,32.11,2.92,1.5,1.5,0,0,0,.79-2.89,96.31,96.31,0,0,0-32.9-3c-1.91.16-1.93,3.16,0,3Z"/><path d="M483.57,610.11a94.06,94.06,0,0,1,25.41-.89c1.92.19,1.91-2.81,0-3a96.67,96.67,0,0,0-26.2,1c-1.9.33-1.1,3.22.79,2.89Z"/><path d="M462.34,660.71a40.78,40.78,0,0,1,20.21,3,1.55,1.55,0,0,0,2.05-.54,1.51,1.51,0,0,0-.54-2,43.84,43.84,0,0,0-21.72-3.38c-1.9.19-1.92,3.2,0,3Z"/><path d="M473.54,728.11q26.63-4.64,53.53-7.33t53.79-3.4q26.94-.72,53.89.5t53.72,4.39q26.84,3.18,53.38,8.34c2.17.42,4.35.85,6.51,1.29,1.89.38,2.7-2.51.8-2.89q-26.49-5.38-53.31-8.82-27-3.48-54.2-5-27-1.49-54.16-1t-54.34,3q-26.91,2.44-53.6,6.86c-2.27.38-4.54.76-6.81,1.16-1.9.33-1.09,3.22.8,2.89Z"/><path d="M330.51,767c8.61,11.5,23.14,15.41,36.88,15.81,8.17.23,16.35-.5,24.5-1l25.17-1.61,28.65-1.82c1.92-.13,1.93-3.13,0-3l-49.34,3.14c-8,.51-15.95,1.2-23.94,1.33-7.37.13-14.82-.36-21.87-2.63-6.75-2.17-13.17-6-17.46-11.71-1.14-1.53-3.75,0-2.59,1.51Z"/></svg>